HIERARCHY
ROOT Hips
{
  OFFSET 0 0 0
  CHANNELS 6 Xposition Yposition Zposition Zrotation Yrotation Xrotation
  JOINT LeftThigh
  {
    OFFSET 8.409438 0 -5.917753
    CHANNELS 3 Zrotation Yrotation Xrotation
    JOINT LeftLeg
    {
      OFFSET 0 0 -42.358652
      CHANNELS 3 Zrotation Yrotation Xrotation
      JOINT LeftFoot
      {
        OFFSET 0 0 -39.357303
        CHANNELS 3 Zrotation Yrotation Xrotation
      }
    }
  }
  JOINT RightThigh
  {
    OFFSET -8.409438 0 -5.917753
    CHANNELS 3 Zrotation Yrotation Xrotation
    JOINT RightLeg
    {
      OFFSET 0 0 -42.358652
      CHANNELS 3 Zrotation Yrotation Xrotation
      JOINT RightFoot
      {
        OFFSET 0 0 -39.357303
        CHANNELS 3 Zrotation Yrotation Xrotation
      }
    }
  }
  JOINT SpineLow
  {
    OFFSET 0 0 4.719101
    CHANNELS 3 Zrotation Yrotation Xrotation
    JOINT SpineMid
    {
      OFFSET 0 0 12.899191
      CHANNELS 3 Zrotation Yrotation Xrotation
      JOINT Chest
      {
        OFFSET 0 0 12.899191
        CHANNELS 3 Zrotation Yrotation Xrotation
        JOINT LeftShoulder
        {
          OFFSET 7.550562 1.41573 9.438202
          CHANNELS 3 Zrotation Yrotation Xrotation
          JOINT LeftArm
          {
            OFFSET 9.155056 0 4.247191
            CHANNELS 3 Zrotation Yrotation Xrotation
            JOINT LeftForearm
            {
              OFFSET 0 0 25.771955
              CHANNELS 3 Zrotation Yrotation Xrotation
              JOINT LeftHand
              {
                OFFSET 0 0 25.197169
                CHANNELS 3 Zrotation Yrotation Xrotation
              }
            }
          }
        }
        JOINT RightShoulder
        {
          OFFSET -7.550562 1.41573 9.438202
          CHANNELS 3 Zrotation Yrotation Xrotation
          JOINT RightArm
          {
            OFFSET -9.155056 0 4.247191
            CHANNELS 3 Zrotation Yrotation Xrotation
            JOINT RightForearm
            {
              OFFSET 0 0 -25.771955
              CHANNELS 3 Zrotation Yrotation Xrotation
              JOINT RightHand
              {
                OFFSET 0 0 -25.197169
                CHANNELS 3 Zrotation Yrotation Xrotation
              }
            }
          }
        }
        JOINT Neck
        {
          OFFSET 0 0 15.101124
          CHANNELS 3 Zrotation Yrotation Xrotation
          JOINT Head
          {
            OFFSET 0 0 11.325843
            CHANNELS 3 Zrotation Yrotation Xrotation
            End Site
            {
              OFFSET 0 0 14.157303
            }
          }
        }
      }
    }
  }
}
MOTION
Frames: 8
Frame Time: 0.0
0.0  93.25843  0.0  -2.223537  -11.81382  -93.866168  8.113251  -15.682708  4.732025  2.473354  -0.373489  10.128905  8.756991  2.072983  3.774611  -13.014508  3.00229  -7.510173  -1.886452  9.991393  13.015184  3.505898  1.632727  -0.423532  1.771001  0.089218  -0.290395  4.839725  0.264971  -0.786749  4.839725  0.264971  -0.786749  -27.381544  20.021565  20.357856  -156.116244  32.295225  -93.224921  -25.88279  24.405966  89.432699  44.831785  -6.165415  17.275582  0.383082  -21.855665  26.818668  115.045938  63.857188  45.605055  -18.750691  -29.830206  -111.011058  56.717232  -9.132331  -5.19708  -1.804979  -1.91321  7.732523  -1.329644  -1.458036  5.793262  
0.0  93.25843  0.0  -2.345174  -10.943035  -93.894465  7.485757  -15.905253  4.300701  2.424813  -0.187362  10.904758  8.815379  2.108157  3.738551  -13.311322  3.053056  -7.305007  -1.822667  9.899501  13.193467  3.456233  1.642934  -0.385682  1.681056  0.092679  -0.28797  4.593843  0.273194  -0.780265  4.593843  0.273194  -0.780265  -27.267256  20.221843  20.47251  -156.751301  32.294603  -93.522312  -25.801145  24.333514  89.23002  45.490496  -5.801292  17.541643  0.101433  -21.629434  26.764895  114.385341  63.662476  44.824103  -18.18647  -29.88662  -111.589454  56.856477  -9.114559  -5.286461  -1.98886  -2.006716  7.778351  -1.466223  -1.530662  5.826709  
0.0  93.25843  0.0  -2.567351  -9.837133  -93.905195  7.137446  -16.337892  3.79016  2.209097  0.014609  11.806384  8.613171  2.172988  3.565639  -13.629234  2.956165  -7.05528  -2.167068  9.866389  13.2561  3.736801  1.789833  -0.306321  1.587599  0.064991  -0.286536  4.338714  0.19636  -0.778567  4.338714  0.19636  -0.778567  -27.255023  20.530535  20.497241  -156.548808  31.704787  -94.087631  -25.070464  25.031878  89.257175  45.920831  -5.32151  17.74266  -0.811757  -21.138339  26.511243  113.996223  63.106602  44.010889  -17.4243  -29.991755  -112.417087  56.90967  -9.173453  -5.383735  -2.279425  -2.029954  7.847986  -1.68364  -1.552064  5.877899  
0.0  93.25843  0.0  -2.805115  -8.340816  -93.8723  6.724717  -16.855926  3.075681  1.58588  0.4186  12.672146  8.641508  2.199349  3.472378  -14.001361  2.892576  -6.759135  -2.304101  9.812502  13.390816  3.582563  1.809349  -0.241847  1.427419  0.044807  -0.295319  3.9011  0.13985  -0.80426  3.9011  0.13985  -0.80426  -27.070494  20.822366  20.529638  -157.147993  31.689588  -94.428227  -25.030281  24.997812  89.053792  46.486392  -4.731636  17.600029  -1.256528  -20.677491  26.455523  113.253855  62.787546  43.03998  -16.69623  -29.965435  -113.16791  56.916819  -9.259939  -5.474259  -2.596568  -2.095302  7.920034  -1.920425  -1.605478  5.930588  
0.0  93.25843  0.0  -3.285309  -7.068661  -94.004727  7.958113  -17.949403  2.873975  -0.14398  0.995566  12.910648  8.450989  2.252208  3.324183  -14.12066  2.632659  -6.245998  -2.503392  9.837874  13.541389  3.613307  1.937024  -0.147306  1.303218  -0.016043  -0.261146  3.562341  -0.029768  -0.714444  3.56234  -0.029768  -0.714444  -26.726402  21.187499  20.532601  -156.671447  31.23891  -94.859228  -24.145695  25.832763  89.322422  46.991906  -4.034025  17.225069  -1.880704  -20.148566  26.143958  112.770502  62.113385  42.1141  -15.969519  -29.912806  -113.967398  56.978006  -9.374354  -5.512788  -2.872888  -2.169369  7.938261  -2.126642  -1.664716  5.942941  
0.0  93.25843  0.0  -3.596273  -5.055391  -93.988902  7.804467  -18.650561  1.860252  -1.273451  1.573966  13.869093  8.382306  2.2503  3.236887  -14.604157  2.580534  -5.888244  -3.040517  9.81898  13.708974  3.366137  1.992728  -0.078929  1.054451  -0.05166  -0.253841  2.882745  -0.130109  -0.695949  2.882745  -0.130109  -0.695949  -26.364576  21.563014  20.497124  -156.948019  31.155673  -95.027488  -23.799396  25.358081  89.43508  47.446749  -3.314926  16.499593  -2.258813  -19.534097  25.790559  112.020662  61.491223  41.054662  -15.214817  -29.805207  -114.727574  57.024841  -9.557722  -5.47083  -3.158887  -2.219585  7.923198  -2.340546  -1.706032  5.930368  
0.0  93.25843  0.0  -3.968221  -2.948929  -94.027945  8.101129  -19.482277  0.844982  -2.474071  2.16259  14.945292  8.073422  2.262435  3.016384  -15.030967  2.457728  -5.491503  -4.17427  9.867711  13.810704  3.157268  2.232728  -0.058029  0.794372  -0.107488  -0.241941  2.1724  -0.285821  -0.664774  2.1724  -0.285821  -0.664774  -25.911853  21.968304  20.39867  -156.570655  30.84942  -95.408833  -22.874156  25.231902  90.004416  47.840226  -2.612446  15.439622  -2.609629  -18.867494  25.270123  111.290936  60.615897  40.162608  -14.688353  -29.467711  -115.422976  56.924807  -9.738424  -5.363063  -3.408593  -2.246149  7.908389  -2.527539  -1.729123  5.918221  
0.0  93.25843  0.0  -4.338615  -0.539548  -94.081357  7.959036  -20.184074  -0.426403  -3.74979  2.789689  16.061183  7.914762  2.226696  2.934648  -15.437103  2.348421  -5.062534  -5.217688  10.008311  13.984195  3.050088  2.303743  0.040093  0.503133  -0.152151  -0.22324  1.37667  -0.41122  -0.613346  1.37667  -0.41122  -0.613346  -25.575742  22.257299  20.309666  -156.82554  30.77398  -95.64774  -22.142356  24.331681  90.510248  48.424385  -2.026916  14.016374  -2.919591  -18.259988  24.561814  110.186785  59.699124  39.210964  -14.08921  -28.967947  -116.175092  56.738576  -9.823649  -5.20487  -3.763315  -2.320093  7.833184  -2.792892  -1.788729  5.860059  
